<?xml version="1.0" encoding="UTF-8" standalone="no"?>
<!DOCTYPE svg PUBLIC "-//W3C//DTD SVG 1.1//EN" "http://www.w3.org/Graphics/SVG/1.1/DTD/svg11.dtd">
<svg style="cursor:pointer" height="300" width="400" xmlns="http://www.w3.org/2000/svg" xmlns:xlink="http://www.w3.org/1999/xlink"><polygon fill="#abc" transform="translate(0, 254)" points="38.9068174 -5 71.8136348 13.9987599 71.8136348 51.9962797 38.9068174 70.9950396 6 51.9962797 6 13.9987599"/><polygon fill="#acb" transform="translate(35, 315)" points="38.9068174 -5 71.8136348 13.9987599 71.8136348 51.9962797 38.9068174 70.9950396 6 51.9962797 6 13.9987599"/><polygon fill="#acb" transform="translate(70, 376)" points="38.9068174 -5 71.8136348 13.9987599 71.8136348 51.9962797 38.9068174 70.9950396 6 51.9962797 6 13.9987599"/><polygon fill="#acb" transform="translate(105, 437)" points="38.9068174 -5 71.8136348 13.9987599 71.8136348 51.9962797 38.9068174 70.9950396 6 51.9962797 6 13.9987599"/><polygon fill="#abc" transform="translate(140, 498)" points="38.9068174 -5 71.8136348 13.9987599 71.8136348 51.9962797 38.9068174 70.9950396 6 51.9962797 6 13.9987599"/><polygon fill="#abc" transform="translate(35, 193)" points="38.9068174 -5 71.8136348 13.9987599 71.8136348 51.9962797 38.9068174 70.9950396 6 51.9962797 6 13.9987599"/><polygon fill="#abc" transform="translate(70, 254)" points="38.9068174 -5 71.8136348 13.9987599 71.8136348 51.9962797 38.9068174 70.9950396 6 51.9962797 6 13.9987599"/><polygon fill="#acb" transform="translate(105, 315)" points="38.9068174 -5 71.8136348 13.9987599 71.8136348 51.9962797 38.9068174 70.9950396 6 51.9962797 6 13.9987599"/><polygon fill="#acb" transform="translate(140, 376)" points="38.9068174 -5 71.8136348 13.9987599 71.8136348 51.9962797 38.9068174 70.9950396 6 51.9962797 6 13.9987599"/><polygon fill="#acb" transform="translate(175, 437)" points="38.9068174 -5 71.8136348 13.9987599 71.8136348 51.9962797 38.9068174 70.9950396 6 51.9962797 6 13.9987599"/><polygon fill="#abc" transform="translate(210, 498)" points="38.9068174 -5 71.8136348 13.9987599 71.8136348 51.9962797 38.9068174 70.9950396 6 51.9962797 6 13.9987599"/><polygon fill="#abc" transform="translate(70, 132)" points="38.9068174 -5 71.8136348 13.9987599 71.8136348 51.9962797 38.9068174 70.9950396 6 51.9962797 6 13.9987599"/><polygon fill="#abc" transform="translate(105, 193)" points="38.9068174 -5 71.8136348 13.9987599 71.8136348 51.9962797 38.9068174 70.9950396 6 51.9962797 6 13.9987599"/><polygon fill="#abc" transform="translate(140, 254)" points="38.9068174 -5 71.8136348 13.9987599 71.8136348 51.9962797 38.9068174 70.9950396 6 51.9962797 6 13.9987599"/><polygon fill="#acb" transform="translate(175, 315)" points="38.9068174 -5 71.8136348 13.9987599 71.8136348 51.9962797 38.9068174 70.9950396 6 51.9962797 6 13.9987599"/><polygon fill="#abc" transform="translate(210, 376)" points="38.9068174 -5 71.8136348 13.9987599 71.8136348 51.9962797 38.9068174 70.9950396 6 51.9962797 6 13.9987599"/><polygon fill="#acb" transform="translate(245, 437)" points="38.9068174 -5 71.8136348 13.9987599 71.8136348 51.9962797 38.9068174 70.9950396 6 51.9962797 6 13.9987599"/><polygon fill="#acb" transform="translate(280, 498)" points="38.9068174 -5 71.8136348 13.9987599 71.8136348 51.9962797 38.9068174 70.9950396 6 51.9962797 6 13.9987599"/><polygon fill="#abc" transform="translate(105, 71)" points="38.9068174 -5 71.8136348 13.9987599 71.8136348 51.9962797 38.9068174 70.9950396 6 51.9962797 6 13.9987599"/><polygon fill="#abc" transform="translate(140, 132)" points="38.9068174 -5 71.8136348 13.9987599 71.8136348 51.9962797 38.9068174 70.9950396 6 51.9962797 6 13.9987599"/><polygon fill="#abc" transform="translate(175, 193)" points="38.9068174 -5 71.8136348 13.9987599 71.8136348 51.9962797 38.9068174 70.9950396 6 51.9962797 6 13.9987599"/><polygon fill="#acb" transform="translate(210, 254)" points="38.9068174 -5 71.8136348 13.9987599 71.8136348 51.9962797 38.9068174 70.9950396 6 51.9962797 6 13.9987599"/><polygon fill="#acb" transform="translate(245, 315)" points="38.9068174 -5 71.8136348 13.9987599 71.8136348 51.9962797 38.9068174 70.9950396 6 51.9962797 6 13.9987599"/><polygon fill="#abc" transform="translate(280, 376)" points="38.9068174 -5 71.8136348 13.9987599 71.8136348 51.9962797 38.9068174 70.9950396 6 51.9962797 6 13.9987599"/><polygon fill="#acb" transform="translate(315, 437)" points="38.9068174 -5 71.8136348 13.9987599 71.8136348 51.9962797 38.9068174 70.9950396 6 51.9962797 6 13.9987599"/><polygon fill="#acb" transform="translate(350, 498)" points="38.9068174 -5 71.8136348 13.9987599 71.8136348 51.9962797 38.9068174 70.9950396 6 51.9962797 6 13.9987599"/><polygon fill="#acb" transform="translate(140, 10)" points="38.9068174 -5 71.8136348 13.9987599 71.8136348 51.9962797 38.9068174 70.9950396 6 51.9962797 6 13.9987599"/><polygon fill="#abc" transform="translate(175, 71)" points="38.9068174 -5 71.8136348 13.9987599 71.8136348 51.9962797 38.9068174 70.9950396 6 51.9962797 6 13.9987599"/><polygon fill="#acb" transform="translate(210, 132)" points="38.9068174 -5 71.8136348 13.9987599 71.8136348 51.9962797 38.9068174 70.9950396 6 51.9962797 6 13.9987599"/><polygon fill="#abc" transform="translate(245, 193)" points="38.9068174 -5 71.8136348 13.9987599 71.8136348 51.9962797 38.9068174 70.9950396 6 51.9962797 6 13.9987599"/><polygon fill="#abc" transform="translate(280, 254)" points="38.9068174 -5 71.8136348 13.9987599 71.8136348 51.9962797 38.9068174 70.9950396 6 51.9962797 6 13.9987599"/><polygon fill="#abc" transform="translate(315, 315)" points="38.9068174 -5 71.8136348 13.9987599 71.8136348 51.9962797 38.9068174 70.9950396 6 51.9962797 6 13.9987599"/><polygon fill="#acb" transform="translate(350, 376)" points="38.9068174 -5 71.8136348 13.9987599 71.8136348 51.9962797 38.9068174 70.9950396 6 51.9962797 6 13.9987599"/><polygon fill="#acb" transform="translate(385, 437)" points="38.9068174 -5 71.8136348 13.9987599 71.8136348 51.9962797 38.9068174 70.9950396 6 51.9962797 6 13.9987599"/><polygon fill="#abc" transform="translate(420, 498)" points="38.9068174 -5 71.8136348 13.9987599 71.8136348 51.9962797 38.9068174 70.9950396 6 51.9962797 6 13.9987599"/><polygon fill="#abc" transform="translate(210, 10)" points="38.9068174 -5 71.8136348 13.9987599 71.8136348 51.9962797 38.9068174 70.9950396 6 51.9962797 6 13.9987599"/><polygon fill="#acb" transform="translate(245, 71)" points="38.9068174 -5 71.8136348 13.9987599 71.8136348 51.9962797 38.9068174 70.9950396 6 51.9962797 6 13.9987599"/><polygon fill="#abc" transform="translate(280, 132)" points="38.9068174 -5 71.8136348 13.9987599 71.8136348 51.9962797 38.9068174 70.9950396 6 51.9962797 6 13.9987599"/><polygon fill="#acb" transform="translate(315, 193)" points="38.9068174 -5 71.8136348 13.9987599 71.8136348 51.9962797 38.9068174 70.9950396 6 51.9962797 6 13.9987599"/><polygon fill="#abc" transform="translate(350, 254)" points="38.9068174 -5 71.8136348 13.9987599 71.8136348 51.9962797 38.9068174 70.9950396 6 51.9962797 6 13.9987599"/><polygon fill="#abc" transform="translate(385, 315)" points="38.9068174 -5 71.8136348 13.9987599 71.8136348 51.9962797 38.9068174 70.9950396 6 51.9962797 6 13.9987599"/><polygon fill="#acb" transform="translate(420, 376)" points="38.9068174 -5 71.8136348 13.9987599 71.8136348 51.9962797 38.9068174 70.9950396 6 51.9962797 6 13.9987599"/><polygon fill="#acb" transform="translate(455, 437)" points="38.9068174 -5 71.8136348 13.9987599 71.8136348 51.9962797 38.9068174 70.9950396 6 51.9962797 6 13.9987599"/><polygon fill="#acb" transform="translate(280, 10)" points="38.9068174 -5 71.8136348 13.9987599 71.8136348 51.9962797 38.9068174 70.9950396 6 51.9962797 6 13.9987599"/><polygon fill="#acb" transform="translate(315, 71)" points="38.9068174 -5 71.8136348 13.9987599 71.8136348 51.9962797 38.9068174 70.9950396 6 51.9962797 6 13.9987599"/><polygon fill="#abc" transform="translate(350, 132)" points="38.9068174 -5 71.8136348 13.9987599 71.8136348 51.9962797 38.9068174 70.9950396 6 51.9962797 6 13.9987599"/><polygon fill="#abc" transform="translate(385, 193)" points="38.9068174 -5 71.8136348 13.9987599 71.8136348 51.9962797 38.9068174 70.9950396 6 51.9962797 6 13.9987599"/><polygon fill="#abc" transform="translate(420, 254)" points="38.9068174 -5 71.8136348 13.9987599 71.8136348 51.9962797 38.9068174 70.9950396 6 51.9962797 6 13.9987599"/><polygon fill="#acb" transform="translate(455, 315)" points="38.9068174 -5 71.8136348 13.9987599 71.8136348 51.9962797 38.9068174 70.9950396 6 51.9962797 6 13.9987599"/><polygon fill="#abc" transform="translate(490, 376)" points="38.9068174 -5 71.8136348 13.9987599 71.8136348 51.9962797 38.9068174 70.9950396 6 51.9962797 6 13.9987599"/><polygon fill="#abc" transform="translate(350, 10)" points="38.9068174 -5 71.8136348 13.9987599 71.8136348 51.9962797 38.9068174 70.9950396 6 51.9962797 6 13.9987599"/><polygon fill="#abc" transform="translate(385, 71)" points="38.9068174 -5 71.8136348 13.9987599 71.8136348 51.9962797 38.9068174 70.9950396 6 51.9962797 6 13.9987599"/><polygon fill="#abc" transform="translate(420, 132)" points="38.9068174 -5 71.8136348 13.9987599 71.8136348 51.9962797 38.9068174 70.9950396 6 51.9962797 6 13.9987599"/><polygon fill="#abc" transform="translate(455, 193)" points="38.9068174 -5 71.8136348 13.9987599 71.8136348 51.9962797 38.9068174 70.9950396 6 51.9962797 6 13.9987599"/><polygon fill="#acb" transform="translate(490, 254)" points="38.9068174 -5 71.8136348 13.9987599 71.8136348 51.9962797 38.9068174 70.9950396 6 51.9962797 6 13.9987599"/><polygon fill="#abc" transform="translate(525, 315)" points="38.9068174 -5 71.8136348 13.9987599 71.8136348 51.9962797 38.9068174 70.9950396 6 51.9962797 6 13.9987599"/><polygon fill="#abc" transform="translate(420, 10)" points="38.9068174 -5 71.8136348 13.9987599 71.8136348 51.9962797 38.9068174 70.9950396 6 51.9962797 6 13.9987599"/><polygon fill="#abc" transform="translate(455, 71)" points="38.9068174 -5 71.8136348 13.9987599 71.8136348 51.9962797 38.9068174 70.9950396 6 51.9962797 6 13.9987599"/><polygon fill="#acb" transform="translate(490, 132)" points="38.9068174 -5 71.8136348 13.9987599 71.8136348 51.9962797 38.9068174 70.9950396 6 51.9962797 6 13.9987599"/><polygon fill="#acb" transform="translate(525, 193)" points="38.9068174 -5 71.8136348 13.9987599 71.8136348 51.9962797 38.9068174 70.9950396 6 51.9962797 6 13.9987599"/><polygon fill="#acb" transform="translate(560, 254)" points="38.9068174 -5 71.8136348 13.9987599 71.8136348 51.9962797 38.9068174 70.9950396 6 51.9962797 6 13.9987599"/></svg>
